<svg width="264" height="43" viewBox="0 0 264 43" fill="none" xmlns="http://www.w3.org/2000/svg">
<g clip-path="url(#clip0_6013_13783)">
<path d="M52.5444 5.55396H59.0899V19.51L65.4479 10.654H73.526L64.7586 21.5066L73.7134 31.9835H65.6019L59.0966 23.1671V31.9835H52.5511V5.55396H52.5444ZM97.2985 31.9769H90.753V28.8141C89.4546 30.6195 87.1524 31.9044 84.2879 31.9044C79.3487 31.9044 76.0224 28.5505 76.0224 22.9364V10.654H82.5277V22.0733C82.5277 24.9396 84.1741 26.521 86.6236 26.521C89.0732 26.521 90.7597 24.9396 90.7597 22.0733V10.654H97.3052V31.9769H97.2985ZM115.777 20.2612C115.777 17.3949 114.171 15.8134 111.681 15.8134C109.191 15.8134 107.585 17.3949 107.585 20.2612V31.9769H101.04V10.654H107.585V13.4413C108.884 11.6688 111.186 10.43 114.05 10.43C118.99 10.43 122.276 13.7444 122.276 19.398V31.9835H115.77V20.2678L115.777 20.2612ZM135.795 31.9769C129.517 31.9769 124.772 27.8323 124.772 21.1639C124.772 14.4956 129.631 10.3509 135.868 10.3509C142.106 10.3509 146.965 14.4956 146.965 21.1639C146.965 27.8323 142.066 31.9769 135.788 31.9769M135.788 26.4024C138.124 26.4024 140.306 24.709 140.306 21.1639C140.306 17.6189 138.164 15.9255 135.868 15.9255C133.573 15.9255 131.431 17.586 131.431 21.1639C131.431 24.7419 133.419 26.4024 135.795 26.4024M160.19 10.3509C165.551 10.3509 169.339 13.2502 170.443 18.2647H163.476C162.94 16.7952 161.87 15.853 160.069 15.853C157.734 15.853 156.127 17.6584 156.127 21.1639C156.127 24.6694 157.734 26.4749 160.069 26.4749C161.87 26.4749 162.9 25.6051 163.476 24.0632H170.443C169.332 28.9261 165.544 31.9769 160.19 31.9769C153.912 31.9769 149.475 27.8323 149.475 21.1639C149.475 14.4956 153.912 10.3509 160.19 10.3509ZM173.006 5.55396H179.552V13.639C180.85 11.8335 183.186 10.5882 186.131 10.5882C190.989 10.5882 194.242 13.9026 194.242 19.5562V31.9835H187.737V20.4259C187.737 17.5596 186.131 15.9782 183.641 15.9782C181.151 15.9782 179.545 17.5596 179.545 20.4259V31.9835H173V5.55396H173.006ZM194.242 8.104C194.242 6.72684 195.266 5.6462 196.739 5.6462C198.211 5.6462 199.235 6.72684 199.235 8.104C199.235 9.48116 198.211 10.5618 196.739 10.5618C195.266 10.5618 194.242 9.48116 194.242 8.104ZM194.51 8.104C194.51 9.35596 195.413 10.318 196.739 10.318C198.064 10.318 198.967 9.35596 198.967 8.104C198.967 6.85204 198.064 5.89001 196.739 5.89001C195.413 5.89001 194.51 6.85863 194.51 8.104ZM196.953 8.25556H196.939L197.87 9.46798L197.575 9.48116L196.645 8.25556H196.103V9.48116H195.835V6.72684H196.953C197.508 6.72684 197.843 6.99701 197.843 7.48461C197.843 7.97222 197.501 8.25556 196.953 8.25556ZM196.103 6.97065V8.01175H196.926C197.301 8.01175 197.575 7.85361 197.575 7.48461C197.575 7.11561 197.307 6.97065 196.926 6.97065H196.103Z" fill="#19A3BB"/>
<path d="M217.849 28.0497C216.926 29.7036 215.587 30.9885 213.82 31.9044C212.054 32.8203 209.945 33.2816 207.489 33.2816H200V11.2339H207.489C209.945 11.2339 212.054 11.6885 213.82 12.5913C215.587 13.5006 216.926 14.7723 217.849 16.4196C218.773 18.067 219.228 20.0042 219.228 22.2314C219.228 24.4585 218.766 26.4024 217.849 28.0563V28.0497ZM213.392 28.0036C214.831 26.6264 215.547 24.7024 215.547 22.2248C215.547 19.7472 214.831 17.8232 213.392 16.446C211.953 15.0688 209.892 14.3836 207.208 14.3836H203.621V30.066H207.208C209.892 30.066 211.953 29.3807 213.392 28.0036Z" fill="#EC3727"/>
<path d="M223.009 9.58003C223.431 9.18468 223.993 8.987 224.689 8.987C225.385 8.987 225.954 9.18468 226.389 9.58003C226.824 9.97539 227.038 10.4762 227.038 11.0824C227.038 11.6886 226.824 12.1762 226.389 12.5518C225.954 12.9274 225.392 13.1119 224.689 13.1119C223.986 13.1119 223.431 12.9274 223.009 12.5518C222.588 12.1762 222.374 11.6886 222.374 11.0824C222.374 10.4762 222.588 9.98198 223.009 9.58003ZM226.496 16.0771V33.2882H222.882V16.0771H226.496Z" fill="#EC3727"/>
<path d="M241.943 17.0127C243.061 17.7836 243.857 18.805 244.319 20.0767V16.077H247.933V33.4727C247.933 35.0739 247.598 36.4971 246.936 37.7359C246.266 38.9747 245.309 39.9499 244.065 40.655C242.813 41.36 241.334 41.7158 239.621 41.7158C237.164 41.7158 235.183 41.1426 233.671 39.996C232.158 38.8495 231.215 37.301 230.833 35.344H234.42C234.715 36.3654 235.29 37.1627 236.134 37.7359C236.977 38.3092 238.061 38.5925 239.366 38.5925C240.805 38.5925 241.99 38.1576 242.92 37.2813C243.85 36.4049 244.312 35.1398 244.312 33.4727V29.2885C243.844 30.5602 243.054 31.5816 241.936 32.3525C240.819 33.1234 239.46 33.5056 237.874 33.5056C236.288 33.5056 234.989 33.1498 233.798 32.4447C232.6 31.7397 231.67 30.7184 230.987 29.3873C230.304 28.0563 229.97 26.4815 229.97 24.6694C229.97 22.8574 230.304 21.3155 230.987 19.9844C231.67 18.6534 232.6 17.6321 233.798 16.9204C234.996 16.2154 236.355 15.8596 237.874 15.8596C239.393 15.8596 240.812 16.2417 241.936 17.0127H241.943ZM235.136 20.4984C234.173 21.5066 233.691 22.8969 233.691 24.6694C233.691 26.4419 234.173 27.8323 235.136 28.8404C236.1 29.8486 237.385 30.356 238.991 30.356C240.009 30.356 240.919 30.1187 241.722 29.6509C242.525 29.1831 243.161 28.5241 243.623 27.6675C244.085 26.8175 244.319 25.8159 244.319 24.6694C244.319 23.5229 244.085 22.5543 243.623 21.6845C243.154 20.8213 242.525 20.1558 241.722 19.6879C240.919 19.2201 240.009 18.9829 238.991 18.9829C237.385 18.9829 236.1 19.4902 235.136 20.4984Z" fill="#EC3727"/>
<path d="M252.417 9.58003C252.839 9.18468 253.401 8.987 254.097 8.987C254.793 8.987 255.362 9.18468 255.797 9.58003C256.232 9.97539 256.446 10.4762 256.446 11.0824C256.446 11.6886 256.232 12.1762 255.797 12.5518C255.362 12.9274 254.8 13.1119 254.097 13.1119C253.394 13.1119 252.839 12.9274 252.417 12.5518C251.995 12.1762 251.781 11.6886 251.781 11.0824C251.781 10.4762 251.995 9.98198 252.417 9.58003ZM255.904 16.0771V33.2882H252.29V16.0771H255.904Z" fill="#EC3727"/>
<path d="M42.3716 34.4347C42.3716 33.0576 43.3956 31.9769 44.868 31.9769C46.3403 31.9769 47.3643 33.0576 47.3643 34.4347C47.3643 35.8119 46.3403 36.8925 44.868 36.8925C43.3956 36.8925 42.3716 35.8119 42.3716 34.4347ZM42.6393 34.4347C42.6393 35.6867 43.5428 36.6487 44.868 36.6487C46.1931 36.6487 47.0966 35.6867 47.0966 34.4347C47.0966 33.1828 46.1931 32.2207 44.868 32.2207C43.5428 32.2207 42.6393 33.1894 42.6393 34.4347ZM45.0821 34.5863H45.0687L45.999 35.7987L45.7045 35.8119L44.7743 34.5863H44.2321V35.8119H43.9644V33.0576H45.0821C45.6376 33.0576 45.9723 33.3277 45.9723 33.8153C45.9723 34.3029 45.6309 34.5863 45.0821 34.5863ZM44.2321 33.3014V34.3425H45.0554C45.4301 34.3425 45.7045 34.1843 45.7045 33.8153C45.7045 33.4463 45.4368 33.3014 45.0554 33.3014H44.2321Z" fill="#EC3727"/>
<path d="M11.98 2.70741C11.98 2.70741 11.9667 2.66128 11.96 2.6481C13.3788 1.96282 14.878 1.42909 16.4508 1.06009C18.0168 0.691089 19.6499 0.5 21.3364 0.5C24.5422 0.5 27.5807 1.19187 30.3046 2.44383L16.4307 13.6719L11.98 2.70741Z" fill="#19A3BB"/>
<path d="M16.4373 29.0513L21.8985 42.4934C21.7111 42.4934 21.517 42.5 21.3296 42.5C9.54378 42.5 0 33.1037 0 21.5C0 15.3061 2.71723 9.73157 7.0541 5.91638L11.7457 17.4542L5.79587 22.2775C4.79866 23.0814 4.3971 24.3993 4.73843 25.6315C5.10653 26.8505 6.16397 27.7466 7.44897 27.9179L16.4373 29.0513Z" fill="#19A3BB"/>
<path d="M39.7881 32.0033C37.1512 36.5038 32.8679 39.9434 27.7546 41.5314C27.7413 41.5051 27.7279 41.4787 27.7212 41.4523L23.0162 29.8882H23.0095L23.0162 29.8816L39.7814 32.0033H39.7881Z" fill="#19A3BB"/>
<path d="M42.6525 21.5C42.6525 23.2461 42.4316 24.933 42.0368 26.5474C42.0033 26.5408 41.9564 26.521 41.9297 26.521L14.0278 23.0023L18.3848 19.4705L18.6859 19.2201L35.2638 5.78457C35.3039 5.75822 35.3307 5.73186 35.3508 5.69891C39.8349 9.54046 42.6525 15.1809 42.6525 21.4934" fill="#EC3727"/>
</g>
<defs>
<clipPath id="clip0_6013_13783">
<rect width="264" height="42" fill="white" transform="translate(0 0.5)"/>
</clipPath>
</defs>
</svg>
