<svg width="59" height="59" viewBox="0 0 59 59" fill="none" xmlns="http://www.w3.org/2000/svg">
<path fill-rule="evenodd" clip-rule="evenodd" d="M27.6062 29.9798L4.35892 22.2307C2.00571 21.4463 0.829102 21.0541 0.829102 20.3333C0.829102 19.6126 2.00571 19.2204 4.35892 18.436L54.8721 1.59826C56.5279 1.04633 57.3558 0.770364 57.7928 1.20738C58.2298 1.6444 57.9538 2.47229 57.4019 4.12808L40.5642 54.6413C39.7798 56.9945 39.3876 58.1711 38.6668 58.1711C37.9461 58.1711 37.5539 56.9945 36.7695 54.6413L36.7695 54.6413L36.7695 54.6412L29.0204 31.394L42.7073 17.7071C43.0978 17.3166 43.0978 16.6834 42.7073 16.2929C42.3167 15.9024 41.6836 15.9024 41.2931 16.2929L27.6062 29.9798Z" fill="#F96900"/>
</svg>
